<?xml version="1.0" encoding="utf-8"?>
<!-- Generator: Adobe Illustrator 25.0.0, SVG Export Plug-In . SVG Version: 6.00 Build 0)  -->
<svg version="1.1" id="Layer_1" xmlns="http://www.w3.org/2000/svg" xmlns:xlink="http://www.w3.org/1999/xlink" x="0px" y="0px"
	 viewBox="0 0 42 42" style="enable-background:new 0 0 42 42;" xml:space="preserve">
<style type="text/css">
	.st0{fill:#6FCF97;}
</style>
<g>
	<path class="st0" d="M40.1,18.3L37,15.2c-0.5-0.5-1-1.6-1-2.3V8.5c0-1.8-1.5-3.3-3.3-3.3h-4.4c-0.7,0-1.8-0.4-2.3-1L23,1
		c-1.3-1.3-3.4-1.3-4.6,0l-3.2,3.1c-0.5,0.5-1.6,1-2.3,1H8.5c-1.8,0-3.3,1.5-3.3,3.3v4.4c0,0.7-0.4,1.8-1,2.3L1,18.2
		c-1.3,1.3-1.3,3.4,0,4.6L4.1,26c0.5,0.5,1,1.6,1,2.3v4.4c0,1.8,1.5,3.3,3.3,3.3h4.4c0.7,0,1.8,0.4,2.3,1l3.1,3.1
		c1.3,1.3,3.4,1.3,4.6,0l3.1-3.1c0.5-0.5,1.6-1,2.3-1h4.4c1.8,0,3.3-1.5,3.3-3.3v-4.4c0-0.7,0.4-1.8,1-2.3l3.1-3.1
		C41.4,21.7,41.4,19.6,40.1,18.3z M28.2,17.7l-8.6,8.6c-0.3,0.3-0.7,0.4-1.1,0.4s-0.8-0.1-1.1-0.4l-3.9-3.9c-0.6-0.6-0.6-1.5,0-2.1
		c0.6-0.6,1.5-0.6,2.1,0l2.9,2.9l7.6-7.6c0.6-0.6,1.5-0.6,2.1,0C28.8,16.2,28.8,17.1,28.2,17.7z"/>
</g>
</svg>
